# Aspose.3D Wavefront OBJ Exporter
# Copyright 2004-2022 Aspose Pty Ltd.
# File created: 11/08/2022 17:57:27


#
# object obj_21064150
#

v 38.10000228881835938 -25.39999961853027344 0
v -38.10000228881835938 -25.39999961853027344 0
v 38.10000228881835938 25.39999961853027344 0
v -38.10000228881835938 25.39999961853027344 0
v 36.10558319091796876 37.56538772583007816 3.469446951953614E-15
v 37.20924377441406248 33.59037399291992184 3.469446951953614E-15
v 37.87665557861328128 29.51933479309082032 3.469446951953614E-15
v -37.87665557861328128 29.51933479309082032 3.469446951953614E-15
v -37.20924377441406248 33.59037399291992184 3.469446951953614E-15
v -36.10558319091796876 37.56538772583007816 3.469446951953614E-15
v -6.1638941764831543 62.99809265136718752 3.469446951953614E-15
v -2.06269240379333496 63.44412231445312496 3.469446951953614E-15
v -24.66541671752929688 54.43837356567382816 3.469446951953614E-15
v -34.57862472534179688 41.39777755737304688 3.469446951953614E-15
v -32.64625930786132816 45.04259872436523437 3.469446951953614E-15
v 34.57862472534179688 41.39777755737304688 3.469446951953614E-15
v 2.06269240379333496 63.44412231445312496 3.469446951953614E-15
v 24.66541671752929688 54.43837356567382816 3.469446951953614E-15
v 27.66042709350585936 51.60134887695312496 3.469446951953614E-15
v -30.331146240234375 48.45713806152343752 3.469446951953614E-15
v -27.66042709350585936 51.60134887695312496 3.469446951953614E-15
v -21.3812274932861328 56.9349479675292968 3.469446951953614E-15
v -17.84636116027832032 59.06180953979492188 3.469446951953614E-15
v 6.1638941764831543 62.99809265136718752 3.469446951953614E-15
v 10.19283008575439452 62.11125564575195312 3.469446951953614E-15
v 14.1022634506225586 60.79401397705078128 3.469446951953614E-15
v 30.331146240234375 48.45713806152343752 3.469446951953614E-15
v 32.64625930786132816 45.04259872436523437 3.469446951953614E-15
v -14.1022634506225586 60.79401397705078128 3.469446951953614E-15
v -10.19283008575439452 62.11125564575195312 3.469446951953614E-15
v 17.84636116027832032 59.06180953979492188 3.469446951953614E-15
v 21.3812274932861328 56.9349479675292968 3.469446951953614E-15
v -38.10000228881835938 -25.39999961853027344 12.69999980926513672
v -38.10000228881835938 25.39999961853027344 12.69999980926513672
v 31.7500019073486328 25.39999961853027344 50.79999923706054688
v 31.7500019073486328 25.39999961853027344 12.69999980926513672
v 31.56388092041015624 28.83277893066406256 12.69999980926513672
v 31.56388092041015624 28.83277893066406256 50.79999923706054688
v 31.00770378112792968 32.225311279296875 12.69999980926513672
v 31.00770378112792968 32.225311279296875 50.79999923706054688
v 30.08798789978027344 35.53782272338867184 12.69999980926513672
v 30.08798789978027344 35.53782272338867184 50.79999923706054688
v 28.81551933288574224 38.73147964477539056 12.69999980926513672
v 28.81551933288574224 38.73147964477539056 50.79999923706054688
v 27.20521545410156248 41.76883316040039056 12.69999980926513672
v 27.20521545410156248 41.76883316040039056 50.79999923706054688
v 25.27595520019531248 44.61428070068359376 12.69999980926513672
v 25.27595520019531248 44.61428070068359376 50.79999923706054688
v 23.05035591125488281 47.23445510864257812 12.69999980926513672
v 23.05035591125488281 47.23445510864257812 50.79999923706054688
v 20.55451393127441408 49.59864425659179688 12.69999980926513672
v 20.55451393127441408 49.59864425659179688 50.79999923706054688
v 17.81768989562988288 51.67912673950195312 12.69999980926513672
v 17.81768989562988288 51.67912673950195312 50.79999923706054688
v 14.87196826934814448 53.45150756835937504 12.69999980926513672
v 14.87196826934814448 53.45150756835937504 50.79999923706054688
v 11.75188636779785152 54.8950080871582032 12.69999980926513672
v 11.75188636779785152 54.8950080871582032 50.79999923706054688
v 8.49402523040771488 55.99271011352539056 12.69999980926513672
v 8.49402523040771488 55.99271011352539056 50.79999923706054688
v 5.13657855987548828 56.73174285888671872 12.69999980926513672
v 5.13657855987548828 56.73174285888671872 50.79999923706054688
v 1.71891033649444584 57.10343551635742188 12.69999980926513672
v 1.71891033649444584 57.10343551635742188 50.79999923706054688
v -1.71891033649444584 57.10343551635742188 12.69999980926513672
v -1.71891033649444584 57.10343551635742188 50.79999923706054688
v -5.13657855987548828 56.73174285888671872 12.69999980926513672
v -5.13657855987548828 56.73174285888671872 50.79999923706054688
v -8.49402523040771488 55.99271011352539056 12.69999980926513672
v -8.49402523040771488 55.99271011352539056 50.79999923706054688
v -11.75188636779785152 54.8950080871582032 12.69999980926513672
v -11.75188636779785152 54.8950080871582032 50.79999923706054688
v -14.87196826934814448 53.45150756835937504 12.69999980926513672
v -14.87196826934814448 53.45150756835937504 50.79999923706054688
v -17.81768989562988288 51.67912673950195312 12.69999980926513672
v -17.81768989562988288 51.67912673950195312 50.79999923706054688
v -20.55451393127441408 49.59864425659179688 12.69999980926513672
v -20.55451393127441408 49.59864425659179688 50.79999923706054688
v -23.05035591125488281 47.23445510864257812 12.69999980926513672
v -23.05035591125488281 47.23445510864257812 50.79999923706054688
v -25.27595520019531248 44.61428070068359376 12.69999980926513672
v -25.27595520019531248 44.61428070068359376 50.79999923706054688
v -27.20521545410156248 41.76883316040039056 12.69999980926513672
v -27.20521545410156248 41.76883316040039056 50.79999923706054688
v -28.81551933288574224 38.73147964477539056 12.69999980926513672
v -28.81551933288574224 38.73147964477539056 50.79999923706054688
v -30.08798789978027344 35.53782272338867184 12.69999980926513672
v -30.08798789978027344 35.53782272338867184 50.79999923706054688
v -31.00770378112792968 32.225311279296875 12.69999980926513672
v -31.00770378112792968 32.225311279296875 50.79999923706054688
v -31.56388092041015624 28.83277893066406256 12.69999980926513672
v -31.56388092041015624 28.83277893066406256 50.79999923706054688
v -31.7500019073486328 25.39999961853027344 12.69999980926513672
v -31.7500019073486328 25.39999961853027344 50.79999923706054688
v -36.10558319091796876 37.56538772583007816 12.69999980926513672
v -37.20924377441406248 33.59037399291992184 12.69999980926513672
v -37.87665557861328128 29.51933479309082032 12.69999980926513672
v -31.7500019073486328 -19.05000114440917969 12.69999980926513672
v 31.7500019073486328 -19.05000114440917969 12.69999980926513672
v 38.10000228881835938 -25.39999961853027344 12.69999980926513672
v 38.10000228881835938 25.39999961853027344 12.69999980926513672
v 37.87665557861328128 29.51933479309082032 12.69999980926513672
v 37.20924377441406248 33.59037399291992184 12.69999980926513672
v 36.10558319091796876 37.56538772583007816 12.69999980926513672
v 34.57862472534179688 41.39777755737304688 12.69999980926513672
v 32.64625930786132816 45.04259872436523437 12.69999980926513672
v 30.331146240234375 48.45713806152343752 12.69999980926513672
v 27.66042709350585936 51.60134887695312496 12.69999980926513672
v 24.66541671752929688 54.43837356567382816 12.69999980926513672
v 21.3812274932861328 56.9349479675292968 12.69999980926513672
v 17.84636116027832032 59.06180953979492188 12.69999980926513672
v 14.1022634506225586 60.79401397705078128 12.69999980926513672
v 10.19283008575439452 62.11125564575195312 12.69999980926513672
v 6.1638941764831543 62.99809265136718752 12.69999980926513672
v 2.06269240379333496 63.44412231445312496 12.69999980926513672
v -2.06269240379333496 63.44412231445312496 12.69999980926513672
v -6.1638941764831543 62.99809265136718752 12.69999980926513672
v -10.19283008575439452 62.11125564575195312 12.69999980926513672
v -14.1022634506225586 60.79401397705078128 12.69999980926513672
v -17.84636116027832032 59.06180953979492188 12.69999980926513672
v -21.3812274932861328 56.9349479675292968 12.69999980926513672
v -24.66541671752929688 54.43837356567382816 12.69999980926513672
v -27.66042709350585936 51.60134887695312496 12.69999980926513672
v -30.331146240234375 48.45713806152343752 12.69999980926513672
v -32.64625930786132816 45.04259872436523437 12.69999980926513672
v -34.57862472534179688 41.39777755737304688 12.69999980926513672
v 31.7500019073486328 -19.05000114440917969 50.79999923706054688
v -31.7500019073486328 -19.05000114440917969 50.79999923706054688
# 128 vertices

vn 0 0 -1
vn 4.471899857117238E-17 1.2416176209045508E-17 -1
vn 4.526232388472171E-17 7.420370095875357E-18 -1
vn 0 8.422347703059007E-16 -1
vn -9.21418785112132E-17 8.472306235683658E-16 -1
vn -1 0 0
vn 0.99853342771530144 0.05413872748613358 0
vn 0.98682647943496704 0.16178226470947266 0
vn 0.96355003118515008 0.26752829551696776 0
vn 0.9289765357971192 0.3701385855674744 0
vn 0.8835121393203736 0.46840825676918032 0
vn 0.8276890516281128 0.56118696928024288 0
vn 0.76216191053390496 0.64738649129867552 0
vn 0.68769967555999752 0.72599530220031744 0
vn 0.60517436265945432 0.79609292745590208 0
vn 0.51555383205413816 0.85685718059539792 0
vn 0.41988864541053768 0.90757560729980464 0
vn 0.319301575422287 0.9476531744003296 0
vn 0.2149706184864044 0.9766204953193664 0
vn 0.10811924189329148 0.99413794279098512 0
vn 0 1 0
vn -0.10811924189329148 0.99413794279098512 0
vn -0.2149706184864044 0.9766204953193664 0
vn -0.319301575422287 0.9476531744003296 0
vn -0.41988864541053768 0.90757560729980464 0
vn -0.51555383205413816 0.85685718059539792 0
vn -0.60517436265945432 0.79609292745590208 0
vn -0.68769967555999752 0.72599530220031744 0
vn -0.76216191053390496 0.64738649129867552 0
vn -0.8276890516281128 0.56118696928024288 0
vn -0.8835121393203736 0.46840825676918032 0
vn -0.9289765357971192 0.3701385855674744 0
vn -0.96355003118515008 0.26752829551696776 0
vn -0.98682647943496704 0.16178226470947266 0
vn -0.99853342771530144 0.05413872748613358 0
vn 0 0 1
vn 1 0 0
vn 0 -1 0
vn 0.9985333681106568 0.05413944274187088 0
vn 0.98682653903961184 0.16178175806999206 0
vn 0.96354997158050544 0.26752850413322448 0
vn 0.92897707223892208 0.37013733386993408 0
vn 0.88351160287857056 0.46840924024581912 0
vn 0.82768929004669184 0.56118661165237424 0
vn 0.76216197013854976 0.647386372089386 0
vn 0.68769943714141848 0.72599548101425168 0
vn 0.60517388582229616 0.79609334468841552 0
vn 0.5155543684959412 0.85685688257217408 0
vn 0.41988915205001832 0.9075754284858704 0
vn 0.31930127739906312 0.9476532340049744 0
vn 0.2149711400270462 0.97662037611007696 0
vn 0.10811816155910492 0.99413806200027472 0
vn -0.10811816155910492 0.99413806200027472 0
vn -0.2149711400270462 0.97662037611007696 0
vn -0.31930127739906312 0.9476532340049744 0
vn -0.41988915205001832 0.9075754284858704 0
vn -0.5155543684959412 0.85685688257217408 0
vn -0.60517388582229616 0.79609334468841552 0
vn -0.68769943714141848 0.72599548101425168 0
vn -0.76216197013854976 0.647386372089386 0
vn -0.82768929004669184 0.56118661165237424 0
vn -0.88351160287857056 0.46840924024581912 0
vn -0.92897707223892208 0.37013733386993408 0
vn -0.96354997158050544 0.26752850413322448 0
vn -0.98682653903961184 0.16178175806999206 0
vn -0.9985333681106568 0.05413944274187088 0
# 66 vertex normals

g obj_21064150
s 1
f 1//1 2//1 3//1
f 2//1 4//1 3//1
f 5//2 6//2 4//2
f 6//3 7//3 4//3
f 4//4 7//4 3//4
f 4//5 8//5 5//5
f 8//1 9//1 5//1
f 5//1 9//1 10//1
f 11//1 12//1 13//1
f 10//1 14//1 5//1
f 14//1 15//1 5//1
f 5//1 15//1 16//1
f 15//1 12//1 17//1
f 15//1 18//1 19//1
f 15//1 20//1 12//1
f 20//1 21//1 12//1
f 12//1 21//1 13//1
f 13//1 22//1 23//1
f 17//1 24//1 15//1
f 24//1 25//1 15//1
f 15//1 25//1 26//1
f 19//1 27//1 15//1
f 27//1 28//1 15//1
f 15//1 28//1 16//1
f 23//1 29//1 13//1
f 29//1 30//1 13//1
f 13//1 30//1 11//1
f 26//1 31//1 15//1
f 31//1 32//1 15//1
f 15//1 32//1 18//1
f 33//6 34//6 2//6
f 34//6 4//6 2//6
f 35//7 36//7 37//7
f 35//7 37//7 38//7
f 37//8 39//8 38//8
f 38//8 39//8 40//8
f 39//9 41//9 40//9
f 40//9 41//9 42//9
f 41//10 43//10 42//10
f 42//10 43//10 44//10
f 43//11 45//11 44//11
f 44//11 45//11 46//11
f 45//12 47//12 46//12
f 46//12 47//12 48//12
f 47//13 49//13 48//13
f 48//13 49//13 50//13
f 49//14 51//14 50//14
f 50//14 51//14 52//14
f 51//15 53//15 52//15
f 52//15 53//15 54//15
f 53//16 55//16 54//16
f 54//16 55//16 56//16
f 55//17 57//17 56//17
f 56//17 57//17 58//17
f 57//18 59//18 58//18
f 58//18 59//18 60//18
f 59//19 61//19 60//19
f 60//19 61//19 62//19
f 61//20 63//20 62//20
f 62//20 63//20 64//20
f 63//21 65//21 64//21
f 64//21 65//21 66//21
f 65//22 67//22 66//22
f 66//22 67//22 68//22
f 67//23 69//23 68//23
f 68//23 69//23 70//23
f 69//24 71//24 70//24
f 70//24 71//24 72//24
f 71//25 73//25 72//25
f 72//25 73//25 74//25
f 73//26 75//26 74//26
f 74//26 75//26 76//26
f 75//27 77//27 76//27
f 76//27 77//27 78//27
f 77//28 79//28 78//28
f 78//28 79//28 80//28
f 79//29 81//29 80//29
f 80//29 81//29 82//29
f 81//30 83//30 82//30
f 82//30 83//30 84//30
f 83//31 85//31 84//31
f 84//31 85//31 86//31
f 85//32 87//32 86//32
f 86//32 87//32 88//32
f 87//33 89//33 88//33
f 88//33 89//33 90//33
f 89//34 91//34 90//34
f 90//34 91//34 92//34
f 91//35 93//35 92//35
f 92//35 93//35 94//35
f 87//36 95//36 89//36
f 95//36 96//36 89//36
f 89//36 96//36 91//36
f 96//36 97//36 91//36
f 91//36 97//36 93//36
f 97//36 34//36 93//36
f 93//36 34//36 98//36
f 34//36 33//36 98//36
f 98//36 33//36 99//36
f 33//36 100//36 99//36
f 99//36 100//36 36//36
f 100//36 101//36 36//36
f 36//36 101//36 37//36
f 101//36 102//36 37//36
f 37//36 102//36 39//36
f 102//36 103//36 39//36
f 39//36 103//36 41//36
f 103//36 104//36 41//36
f 41//36 104//36 43//36
f 104//36 105//36 43//36
f 43//36 105//36 45//36
f 105//36 106//36 45//36
f 45//36 106//36 47//36
f 106//36 107//36 47//36
f 47//36 107//36 49//36
f 107//36 108//36 49//36
f 49//36 108//36 51//36
f 108//36 109//36 51//36
f 51//36 109//36 53//36
f 109//36 110//36 53//36
f 53//36 110//36 55//36
f 110//36 111//36 55//36
f 55//36 111//36 57//36
f 111//36 112//36 57//36
f 57//36 112//36 59//36
f 112//36 113//36 59//36
f 59//36 113//36 61//36
f 113//36 114//36 61//36
f 61//36 114//36 63//36
f 114//36 115//36 63//36
f 63//36 115//36 65//36
f 115//36 116//36 65//36
f 65//36 116//36 67//36
f 116//36 117//36 67//36
f 67//36 117//36 69//36
f 117//36 118//36 69//36
f 69//36 118//36 71//36
f 118//36 119//36 71//36
f 71//36 119//36 73//36
f 119//36 120//36 73//36
f 73//36 120//36 75//36
f 120//36 121//36 75//36
f 75//36 121//36 77//36
f 121//36 122//36 77//36
f 77//36 122//36 79//36
f 122//36 123//36 79//36
f 79//36 123//36 81//36
f 123//36 124//36 81//36
f 81//36 124//36 83//36
f 124//36 125//36 83//36
f 83//36 125//36 85//36
f 125//36 126//36 85//36
f 85//36 126//36 87//36
f 126//36 95//36 87//36
f 35//37 127//37 36//37
f 127//37 99//37 36//37
f 100//38 33//38 1//38
f 33//38 2//38 1//38
f 98//6 128//6 93//6
f 128//6 94//6 93//6
f 101//39 3//39 7//39
f 101//39 7//39 102//39
f 7//40 6//40 102//40
f 102//40 6//40 103//40
f 6//41 5//41 103//41
f 103//41 5//41 104//41
f 5//42 16//42 104//42
f 104//42 16//42 105//42
f 16//43 28//43 105//43
f 105//43 28//43 106//43
f 28//44 27//44 106//44
f 106//44 27//44 107//44
f 27//45 19//45 107//45
f 107//45 19//45 108//45
f 19//46 18//46 108//46
f 108//46 18//46 109//46
f 18//47 32//47 109//47
f 109//47 32//47 110//47
f 32//48 31//48 110//48
f 110//48 31//48 111//48
f 31//49 26//49 111//49
f 111//49 26//49 112//49
f 26//50 25//50 112//50
f 112//50 25//50 113//50
f 25//51 24//51 113//51
f 113//51 24//51 114//51
f 24//52 17//52 114//52
f 114//52 17//52 115//52
f 17//21 12//21 115//21
f 115//21 12//21 116//21
f 12//53 11//53 116//53
f 116//53 11//53 117//53
f 11//54 30//54 117//54
f 117//54 30//54 118//54
f 30//55 29//55 118//55
f 118//55 29//55 119//55
f 29//56 23//56 119//56
f 119//56 23//56 120//56
f 23//57 22//57 120//57
f 120//57 22//57 121//57
f 22//58 13//58 121//58
f 121//58 13//58 122//58
f 13//59 21//59 122//59
f 122//59 21//59 123//59
f 21//60 20//60 123//60
f 123//60 20//60 124//60
f 20//61 15//61 124//61
f 124//61 15//61 125//61
f 15//62 14//62 125//62
f 125//62 14//62 126//62
f 14//63 10//63 126//63
f 126//63 10//63 95//63
f 10//64 9//64 95//64
f 95//64 9//64 96//64
f 9//65 8//65 96//65
f 96//65 8//65 97//65
f 8//66 4//66 97//66
f 97//66 4//66 34//66
f 101//37 100//37 3//37
f 100//37 1//37 3//37
f 94//36 128//36 127//36
f 127//36 35//36 94//36
f 35//36 38//36 94//36
f 94//36 38//36 40//36
f 40//36 42//36 94//36
f 42//36 44//36 94//36
f 94//36 44//36 46//36
f 46//36 48//36 94//36
f 48//36 50//36 94//36
f 94//36 50//36 52//36
f 52//36 54//36 94//36
f 54//36 56//36 94//36
f 94//36 56//36 58//36
f 58//36 60//36 94//36
f 60//36 62//36 94//36
f 94//36 62//36 64//36
f 64//36 66//36 94//36
f 66//36 68//36 94//36
f 94//36 68//36 70//36
f 70//36 72//36 94//36
f 72//36 74//36 94//36
f 94//36 74//36 76//36
f 80//36 88//36 90//36
f 88//36 80//36 86//36
f 80//36 82//36 86//36
f 86//36 82//36 84//36
f 76//36 78//36 94//36
f 78//36 80//36 94//36
f 94//36 80//36 92//36
f 80//36 90//36 92//36
f 127//38 128//38 99//38
f 128//38 98//38 99//38
#252 polygons

